<svg width="48" height="48" viewBox="0 0 48 48" fill="none" xmlns="http://www.w3.org/2000/svg">
<path d="M24 0C19.2533 0 14.6131 1.40758 10.6663 4.04473C6.71955 6.68188 3.64341 10.4302 1.8269 14.8156C0.0103989 19.201 -0.464881 24.0266 0.461164 28.6822C1.38721 33.3377 3.67299 37.6141 7.02945 40.9706C10.3859 44.327 14.6623 46.6128 19.3178 47.5388C23.9734 48.4649 28.799 47.9896 33.1844 46.1731C37.5698 44.3566 41.3181 41.2805 43.9553 37.3337C46.5924 33.3869 48 28.7468 48 24C47.9929 17.637 45.4621 11.5366 40.9627 7.03729C36.4634 2.53795 30.363 0.0071067 24 0ZM24 44C20.0444 44 16.1776 42.827 12.8886 40.6294C9.59963 38.4318 7.03617 35.3082 5.52242 31.6537C4.00867 27.9991 3.6126 23.9778 4.38431 20.0982C5.15601 16.2186 7.06083 12.6549 9.85788 9.85786C12.6549 7.06081 16.2186 5.156 20.0982 4.38429C23.9778 3.61259 27.9992 4.00866 31.6537 5.52241C35.3082 7.03616 38.4318 9.59961 40.6294 12.8886C42.827 16.1776 44 20.0444 44 24C43.9939 29.3025 41.8848 34.386 38.1354 38.1354C34.386 41.8848 29.3025 43.9939 24 44Z" fill="black"/>
</svg>
