<svg width="48" height="48" viewBox="0 0 48 48" fill="none" xmlns="http://www.w3.org/2000/svg">
<path d="M24 0C19.2533 0 14.6131 1.40758 10.6663 4.04473C6.71955 6.68188 3.64341 10.4302 1.8269 14.8156C0.0103989 19.201 -0.464881 24.0266 0.461164 28.6822C1.38721 33.3377 3.67299 37.6141 7.02945 40.9706C10.3859 44.327 14.6623 46.6128 19.3178 47.5388C23.9734 48.4649 28.799 47.9896 33.1844 46.1731C37.5698 44.3566 41.3181 41.2805 43.9553 37.3337C46.5924 33.3869 48 28.7468 48 24C47.9929 17.637 45.4621 11.5366 40.9627 7.03729C36.4634 2.53795 30.363 0.0071067 24 0ZM24 44C20.0444 44 16.1776 42.827 12.8886 40.6294C9.59963 38.4318 7.03617 35.3082 5.52242 31.6537C4.00867 27.9991 3.6126 23.9778 4.38431 20.0982C5.15601 16.2186 7.06083 12.6549 9.85788 9.85786C12.6549 7.06081 16.2186 5.156 20.0982 4.38429C23.9778 3.61259 27.9992 4.00866 31.6537 5.52241C35.3082 7.03616 38.4318 9.59961 40.6294 12.8886C42.827 16.1776 44 20.0444 44 24C43.9939 29.3025 41.8848 34.386 38.1354 38.1354C34.386 41.8848 29.3025 43.9939 24 44Z" fill="black"/>
<path d="M34.5859 14.5859L21 28.1714L15.4141 22.5859C15.0389 22.2113 14.5304 22.001 14.0003 22.0013C13.4702 22.0015 12.9618 22.2121 12.587 22.587C12.2121 22.9618 12.0014 23.4702 12.0012 24.0003C12.001 24.5304 12.2113 25.039 12.5859 25.4141L19.5859 32.4141C19.7715 32.5998 19.992 32.7472 20.2346 32.8477C20.4773 32.9483 20.7373 33 21 33C21.2626 33 21.5227 32.9483 21.7653 32.8477C22.0079 32.7472 22.2284 32.5998 22.4141 32.4141L37.4141 17.4141C37.7886 17.039 37.9989 16.5304 37.9987 16.0003C37.9985 15.4702 37.7878 14.9618 37.413 14.587C37.0381 14.2121 36.5298 14.0015 35.9996 14.0013C35.4695 14.001 34.961 14.2113 34.5859 14.5859Z" fill="black"/>
</svg>
