<svg width="314" height="81" viewBox="0 0 314 81" fill="none" xmlns="http://www.w3.org/2000/svg">
<path d="M165.299 71.3765C163.629 71.3782 161.996 70.8833 160.606 69.9544C159.217 69.0256 158.134 67.7047 157.494 66.1587C156.854 64.6128 156.686 62.9114 157.012 61.27C157.337 59.6285 158.142 58.1207 159.323 56.9374C154.932 61.3287 148.982 63.795 142.779 63.795C136.575 63.795 130.625 61.3287 126.235 56.9374C124.651 55.3493 122.502 54.4567 120.261 54.4561C118.02 54.4555 115.871 55.3468 114.286 56.934C112.701 58.5213 111.81 60.6744 111.809 62.9197C111.809 65.1651 112.698 67.3187 114.282 68.9068C121.838 76.4631 132.077 80.7069 142.752 80.7069C153.427 80.7069 163.666 76.4631 171.221 68.9068C169.648 70.4788 167.52 71.3662 165.299 71.3765Z" fill="#3F92CF"/>
<path d="M171.275 11.8001C172.859 13.3882 173.749 15.5419 173.748 17.7872C173.748 20.0325 172.857 22.1857 171.272 23.7729C169.687 25.3601 167.537 26.2515 165.297 26.2509C163.056 26.2502 160.907 25.3577 159.323 23.7695C161.496 25.9461 163.22 28.5304 164.396 31.3748C165.573 34.2191 166.178 37.2678 166.178 40.3467C166.178 43.4256 165.573 46.4743 164.396 49.3187C163.22 52.163 161.496 54.7473 159.323 56.9239C157.773 58.5161 156.911 60.6556 156.923 62.8797C156.935 65.1037 157.82 67.2337 159.387 68.809C160.954 70.3844 163.077 71.2785 165.296 71.2981C167.516 71.3176 169.654 70.4611 171.248 68.9136C174.99 65.1645 177.958 60.7136 179.984 55.8149C182.009 50.9163 183.051 45.6659 183.051 40.3636C183.051 35.0613 182.009 29.811 179.984 24.9123C177.958 20.0137 174.99 15.5628 171.248 11.8136L171.275 11.8001Z" fill="#42BA85"/>
<path d="M126.241 23.7628C127.828 22.1773 128.721 20.0252 128.725 17.7799C128.728 15.5345 127.841 13.3799 126.258 11.79C124.676 10.2 122.528 9.30503 120.287 9.30186C118.047 9.29869 115.896 10.1876 114.309 11.773C110.567 15.5222 107.599 19.9731 105.574 24.8717C103.549 29.7704 102.507 35.0207 102.507 40.323C102.507 45.6253 103.549 50.8757 105.574 55.7743C107.599 60.673 110.567 65.1239 114.309 68.873C113.507 68.0913 112.867 67.1574 112.427 66.1256C111.988 65.0939 111.757 63.985 111.749 62.8632C111.741 61.7415 111.956 60.6293 112.381 59.5914C112.805 58.5535 113.432 57.6106 114.223 56.8174C115.015 56.0241 115.956 55.3965 116.992 54.9709C118.028 54.5454 119.138 54.3303 120.257 54.3384C121.377 54.3464 122.483 54.5773 123.513 55.0177C124.543 55.4581 125.475 56.0991 126.255 56.9036C124.081 54.7275 122.356 52.1433 121.179 49.2989C120.003 46.4545 119.397 43.4055 119.397 40.3264C119.397 37.2473 120.003 34.1984 121.179 31.3539C122.356 28.5095 124.081 25.9253 126.255 23.7492L126.241 23.7628Z" fill="#FAA338"/>
<path d="M171.275 11.8001C163.72 4.24385 153.481 0 142.806 0C132.131 0 121.892 4.24385 114.336 11.8001C115.923 10.2147 118.074 9.32574 120.314 9.32891C122.555 9.33209 124.703 10.2271 126.285 11.817C127.868 13.407 128.755 15.5616 128.752 17.8069C128.748 20.0523 127.855 22.2044 126.268 23.7898C130.657 19.3952 136.608 16.9266 142.813 16.9266C149.017 16.9266 154.968 19.3952 159.357 23.7898C160.941 25.378 163.09 26.2705 165.33 26.2712C167.571 26.2718 169.721 25.3804 171.306 23.7932C172.891 22.206 173.781 20.0528 173.782 17.8075C173.783 15.5622 172.893 13.4085 171.309 11.8204L171.275 11.8001Z" fill="#5F4B9F"/>
<path d="M230.753 47.2279C229.593 47.2402 228.443 47.0097 227.376 46.5513C226.358 46.1091 225.437 45.4702 224.665 44.671C223.894 43.8719 223.287 42.9282 222.879 41.894C222.471 40.8597 222.271 39.7551 222.29 38.6433C222.308 37.5314 222.545 36.4342 222.987 35.4142L216.91 49.4811L224.662 67.3777C225.131 68.4634 225.367 69.6357 225.356 70.8187C225.344 72.0018 225.085 73.1692 224.594 74.2454C224.594 74.198 224.642 74.1642 224.662 74.1168L238.505 42.1601C237.844 43.668 236.758 44.9503 235.382 45.8503C234.005 46.7503 232.397 47.229 230.753 47.2279Z" fill="#F26655"/>
<path d="M246.595 2.21238C245.577 1.76955 244.482 1.53204 243.372 1.51342C242.262 1.49481 241.16 1.69544 240.128 2.10387C239.096 2.5123 238.154 3.12051 237.356 3.89376C236.559 4.66702 235.921 5.59015 235.48 6.61041L223.007 35.3871C222.566 36.4071 222.328 37.5044 222.31 38.6162C222.291 39.728 222.492 40.8326 222.899 41.8669C223.307 42.9012 223.914 43.8448 224.685 44.6439C225.457 45.4431 226.378 46.082 227.397 46.5242C228.463 46.9827 229.613 47.2131 230.773 47.2009C232.421 47.201 234.033 46.7189 235.411 45.8138C236.79 44.9087 237.874 43.62 238.532 42.1059L250.997 13.3225C251.879 11.2636 251.91 8.93875 251.085 6.8566C250.26 4.77445 248.645 3.10457 246.595 2.21238Z" fill="#5F4B9F"/>
<path d="M209.164 67.3506L216.917 49.454L210.839 35.3871C211.282 36.4066 211.52 37.5036 211.54 38.6153C211.559 39.7271 211.36 40.8318 210.953 41.8663C210.546 42.9007 209.939 43.8446 209.168 44.6438C208.396 45.4431 207.475 46.0821 206.457 46.5243C205.39 46.9825 204.24 47.2129 203.08 47.2009C201.433 47.2005 199.822 46.7182 198.445 45.813C197.068 44.9079 195.985 43.6195 195.328 42.1059L209.171 74.0627C209.171 74.1101 209.218 74.1439 209.239 74.1913C208.751 73.1192 208.493 71.9569 208.48 70.7788C208.467 69.6008 208.7 68.4331 209.164 67.3506Z" fill="#3F92CF"/>
<path d="M224.669 67.3506L216.917 49.454L209.164 67.3506C208.695 68.4363 208.459 69.6086 208.471 70.7917C208.482 71.9747 208.742 73.1421 209.232 74.2183C209.377 74.5414 209.542 74.8555 209.725 75.1588L209.779 75.2468C209.982 75.5561 210.208 75.8501 210.454 76.1264C210.509 76.1993 210.568 76.2693 210.63 76.3361C210.857 76.593 211.098 76.837 211.352 77.0669L211.406 77.1142C211.677 77.3608 211.966 77.587 212.271 77.7909C212.345 77.845 212.426 77.8924 212.507 77.9397C212.756 78.095 213.013 78.2372 213.277 78.366L213.486 78.4675C213.815 78.6166 214.153 78.7432 214.499 78.8464L214.708 78.9005C214.992 78.9817 215.289 79.0426 215.586 79.0967L215.856 79.1373C216.577 79.2456 217.31 79.2456 218.031 79.1373L218.301 79.0967C218.598 79.0426 218.895 78.9817 219.179 78.9005L219.388 78.8464C219.734 78.7432 220.072 78.6166 220.401 78.4675L220.61 78.3592C220.875 78.2354 221.132 78.0953 221.38 77.9397C221.461 77.8924 221.542 77.845 221.616 77.7909C221.918 77.5837 222.207 77.3577 222.481 77.1142L222.542 77.0601C222.791 76.8347 223.028 76.5952 223.251 76.3429C223.315 76.2741 223.376 76.2018 223.433 76.1264C223.679 75.8501 223.905 75.5561 224.108 75.2468L224.162 75.152C224.345 74.851 224.51 74.5392 224.655 74.2183C225.137 73.1383 225.387 71.9689 225.39 70.7859C225.392 69.6029 225.146 68.4325 224.669 67.3506Z" fill="#EE3075"/>
<path d="M210.819 35.3871L198.353 6.61043C197.458 4.54675 195.781 2.92402 193.691 2.09923C191.602 1.27444 189.271 1.31515 187.211 2.2124C185.152 3.10966 183.532 4.78996 182.709 6.88366C181.886 8.97736 181.927 11.3129 182.822 13.3766L195.288 42.1601C195.944 43.6736 197.027 44.9621 198.405 45.8672C199.782 46.7723 201.393 47.2547 203.04 47.255C204.2 47.2671 205.35 47.0366 206.416 46.5784C207.443 46.1384 208.372 45.4987 209.15 44.6963C209.928 43.8939 210.54 42.9447 210.949 41.9038C211.359 40.8629 211.558 39.751 211.536 38.6323C211.513 37.5137 211.27 36.4107 210.819 35.3871Z" fill="#42BA85"/>
<path d="M264.982 1.529C267.223 1.529 269.371 2.4208 270.956 4.00821C272.54 5.59561 273.43 7.74859 273.43 9.99352V18.431H305.566C307.746 18.3436 309.808 17.4143 311.32 15.8377C312.831 14.2611 313.676 12.1596 313.676 9.97323C313.676 7.78688 312.831 5.68534 311.32 4.10876C309.808 2.53218 307.746 1.60287 305.566 1.51547H264.982" fill="#42BA85"/>
<path d="M293.587 47.2144C295.767 47.127 297.829 46.1977 299.34 44.6211C300.852 43.0445 301.696 40.943 301.696 38.7566C301.696 36.5703 300.852 34.4688 299.34 32.8922C297.829 31.3156 295.767 30.3863 293.587 30.2989H273.43V47.2144H293.587Z" fill="#FAA338"/>
<path d="M265.002 79.1983H305.566C307.746 79.1109 309.808 78.1815 311.32 76.605C312.831 75.0284 313.676 72.9268 313.676 70.7405C313.676 68.5542 312.831 66.4526 311.32 64.876C309.808 63.2995 307.746 62.3701 305.566 62.2827H273.43V70.7473C273.426 72.9863 272.537 75.1328 270.958 76.7167C269.378 78.3006 267.237 79.1929 265.002 79.1983Z" fill="#F26655"/>
<path d="M256.528 38.7499V70.7337C256.53 68.4882 257.421 66.3352 259.006 64.748C260.592 63.1608 262.741 62.2692 264.982 62.2692H273.43V47.2144H264.982C262.741 47.2144 260.592 46.3228 259.006 44.7356C257.421 43.1484 256.53 40.9954 256.528 38.7499Z" fill="#5F4B9F"/>
<path d="M264.982 18.431C262.743 18.4328 260.595 17.5436 259.009 15.9589C257.424 14.3743 256.531 12.2237 256.528 9.97998V38.7499C256.53 36.5043 257.421 34.3514 259.006 32.7641C260.592 31.1769 262.741 30.2854 264.982 30.2854H273.43V18.431H264.982Z" fill="#5F4B9F"/>
<path d="M264.982 18.431H273.43V9.99352C273.436 8.31635 272.946 6.67493 272.021 5.27724C271.096 3.87955 269.777 2.78851 268.233 2.14234C266.688 1.49618 264.987 1.32398 263.344 1.64757C261.702 1.97115 260.192 2.77596 259.007 3.96001C257.821 5.14406 257.013 6.65406 256.685 8.29869C256.357 9.94332 256.523 11.6486 257.163 13.1983C257.803 14.7481 258.888 16.0727 260.28 17.0042C261.672 17.9357 263.308 18.4323 264.982 18.431Z" fill="#4B499E"/>
<path d="M256.528 38.7499C256.53 40.9954 257.421 43.1484 259.006 44.7356C260.592 46.3228 262.741 47.2144 264.982 47.2144H273.43V30.2989H264.982C262.743 30.2989 260.596 31.1886 259.011 32.7729C257.426 34.3572 256.533 36.5067 256.528 38.7499Z" fill="#9D54A1"/>
<path d="M256.528 70.7337C256.53 72.9793 257.421 75.1322 259.006 76.7194C260.592 78.3067 262.741 79.1982 264.982 79.1982C267.219 79.1929 269.363 78.2987 270.942 76.7119C272.522 75.125 273.41 72.9751 273.41 70.7337V62.2692H264.982C262.741 62.2692 260.592 63.1608 259.006 64.748C257.421 66.3352 256.53 68.4882 256.528 70.7337Z" fill="#9D54A1"/>
<path d="M29.2594 9.97998V70.7202C29.3466 72.9048 30.2741 74.9708 31.8475 76.4856C33.4209 78.0003 35.5183 78.8463 37.7002 78.8463C39.8822 78.8463 41.9796 78.0003 43.553 76.4856C45.1264 74.9708 46.0539 72.9048 46.1411 70.7202V33.5805L31.1839 15.3591C29.934 13.8469 29.253 11.9434 29.2594 9.97998Z" fill="#5F4B9F"/>
<path d="M96.0704 70.7202V9.97999C95.9484 7.81958 95.006 5.78785 93.4364 4.30162C91.8668 2.81539 89.7891 1.98734 87.6296 1.98734C85.47 1.98734 83.3924 2.81539 81.8228 4.30162C80.2532 5.78785 79.3107 7.81958 79.1887 9.97999V47.1197L94.1459 65.3411C95.3928 66.8549 96.0734 68.7573 96.0704 70.7202Z" fill="#46BA85"/>
<path d="M79.1684 47.1197L44.23 4.60086C45.4818 6.12513 46.1626 8.03984 46.1546 10.0138V33.5805L81.0997 76.1061C79.842 74.5848 79.1583 72.6686 79.1684 70.6931V47.1197Z" fill="#FAA338"/>
<path d="M44.2301 4.59409C44.0478 4.37758 43.8654 4.17459 43.6696 3.97837L43.3387 3.68066C43.2442 3.59946 43.1564 3.5115 43.0551 3.43031C42.9538 3.34911 42.7985 3.23409 42.6635 3.13936C42.5284 3.04463 42.4879 2.99727 42.3933 2.93638L42.0017 2.67926L41.6843 2.48981L41.3197 2.31388C41.1914 2.25299 41.0631 2.18533 40.928 2.1312L40.6106 2.01617C40.4553 1.96204 40.3068 1.90115 40.1515 1.85378L39.8543 1.79965C39.6923 1.75906 39.5235 1.71169 39.3546 1.67786L39.0102 1.62373C38.8549 1.62373 38.6996 1.5696 38.5443 1.55607C38.2742 1.529 37.9973 1.51547 37.7137 1.51547H37.6259C37.3693 1.51547 37.1195 1.51547 36.8696 1.55607L36.5388 1.60343C36.3767 1.60343 36.2146 1.64403 36.0526 1.67786L35.6609 1.77259L35.249 1.88085C35.1072 1.92144 34.9721 1.97557 34.8371 2.02294L34.4724 2.15826C34.3306 2.21916 34.1888 2.29359 34.047 2.36125C33.9364 2.40759 33.8282 2.45953 33.7229 2.51687C33.5608 2.59806 33.4055 2.69956 33.2435 2.80105C33.0814 2.90254 33.0881 2.88901 33.0139 2.94314C32.7789 3.0963 32.5534 3.2635 32.3386 3.44384C32.1331 3.63012 31.937 3.82658 31.7511 4.0325L31.4675 4.35051C31.3745 4.44503 31.2866 4.5444 31.2041 4.64822C31.0961 4.77002 31.0083 4.90534 30.907 5.04066C30.8057 5.17599 30.772 5.21658 30.7112 5.31131C30.6504 5.40604 30.5491 5.57519 30.4681 5.71052L30.2858 6.02176C30.2182 6.14355 30.1642 6.27211 30.1035 6.40067C30.0404 6.52149 29.984 6.64573 29.9346 6.77281C29.8874 6.88784 29.8468 7.00286 29.8063 7.11112C29.7658 7.21938 29.6983 7.40883 29.651 7.55769L29.57 7.88247C29.5295 8.03809 29.489 8.20048 29.4552 8.3561C29.4214 8.51173 29.4147 8.61999 29.3944 8.74854C29.3742 8.8771 29.3471 9.03272 29.3336 9.16805C29.3336 9.44546 29.2931 9.72288 29.2931 10.0071C29.2788 11.9821 29.9603 13.8989 31.2176 15.42L46.1546 33.5805V9.97999C46.1563 8.0153 45.476 6.11119 44.2301 4.59409Z" fill="#9D54A1"/>
<path d="M94.4498 75.6866C94.5173 75.5986 94.5848 75.5107 94.6456 75.4159C94.7064 75.3212 94.8144 75.1521 94.8955 75.0167C94.9765 74.8814 95.017 74.8138 95.071 74.7055C95.1251 74.5972 95.1926 74.4551 95.2533 74.3266C95.3141 74.198 95.3749 74.083 95.4289 73.9544C95.4829 73.8259 95.5099 73.7244 95.5505 73.6094C95.591 73.4943 95.6653 73.3184 95.7058 73.1696C95.7463 73.0207 95.7598 72.953 95.7936 72.8448C95.8273 72.7365 95.8746 72.5268 95.9084 72.3712C95.9421 72.2155 95.9489 72.1073 95.9691 71.9787C95.9894 71.8502 96.0164 71.6945 96.0299 71.5524C96.0569 71.2818 96.0704 71.0044 96.0704 70.7202C96.0813 68.7457 95.4002 66.8301 94.1459 65.3072L79.1684 47.1197V70.7202C79.1583 72.6957 79.842 74.6118 81.0997 76.1332C81.2888 76.3632 81.4914 76.5797 81.7007 76.8098C81.7817 76.891 81.8695 76.9586 81.9573 77.0398L82.3625 77.3917L82.6798 77.6285L83.085 77.9059L83.4159 78.1021C83.5644 78.1901 83.7198 78.2713 83.8751 78.3457L84.1857 78.5013L84.7327 78.7179L84.996 78.8126C85.2121 78.8802 85.4372 78.9411 85.6713 78.9953L85.8739 79.0426C86.1237 79.0964 86.3761 79.137 86.6302 79.1644C86.6706 79.1677 86.7113 79.1677 86.7517 79.1644C87.05 79.1971 87.3498 79.2129 87.6498 79.2118C88.0752 79.2096 88.4997 79.1734 88.9193 79.1035H89.1489C89.5568 79.0301 89.9586 78.9261 90.3509 78.7923L90.5602 78.7179C90.965 78.5703 91.3579 78.3916 91.7352 78.1833L91.85 78.1157C92.2581 77.8816 92.6466 77.6146 93.0115 77.3172C93.2275 77.1346 93.4369 76.9451 93.626 76.7557C93.815 76.5662 93.815 76.5459 93.9096 76.4444L94.1797 76.1467C94.2607 75.9572 94.3552 75.8219 94.4498 75.6866Z" fill="#04A46A"/>
<path d="M8.46112 1.51547C6.22067 1.51547 4.07199 2.40727 2.48775 3.99467C0.90352 5.58208 0.0135059 7.73506 0.0135059 9.97999V38.7364C-0.0514966 37.5854 0.118619 36.4333 0.513439 35.3505C0.908258 34.2678 1.51947 33.2771 2.30966 32.4393C3.09985 31.6015 4.05239 30.934 5.10896 30.4779C6.16553 30.0217 7.30389 29.7864 8.45437 29.7864C9.60484 29.7864 10.7432 30.0217 11.7998 30.4779C12.8563 30.934 13.8089 31.6015 14.5991 32.4393C15.3893 33.2771 16.0005 34.2678 16.3953 35.3505C16.7901 36.4333 16.9602 37.5854 16.8952 38.7364V9.97999C16.8934 7.73795 16.0047 5.58805 14.4238 4.00142C12.8429 2.41479 10.6987 1.52084 8.46112 1.51547Z" fill="#42BA85"/>
<path d="M8.4611 30.2651C6.22003 30.2669 4.07137 31.1602 2.48733 32.7486C0.903286 34.3371 0.0134881 36.4908 0.0134888 38.7364L0.0134888 70.7202C0.135505 72.8806 1.07797 74.9123 2.64755 76.3986C4.21712 77.8848 6.2948 78.7129 8.45435 78.7129C10.6139 78.7129 12.6916 77.8848 14.2611 76.3986C15.8307 74.9123 16.7732 72.8806 16.8952 70.7202V38.7364C16.8934 36.4937 16.0049 34.3431 14.4242 32.7554C12.8434 31.1677 10.6993 30.2722 8.4611 30.2651Z" fill="#9D54A1"/>
</svg>
